<?xml version="1.0" encoding="UTF-8"?>
<svg width="8px" height="12px" viewBox="0 0 8 12" version="1.1" xmlns="http://www.w3.org/2000/svg" xmlns:xlink="http://www.w3.org/1999/xlink">
    <!-- Generator: sketchtool 51.3 (57544) - http://www.bohemiancoding.com/sketch -->
    <title>7FED32B1-E102-4A24-9F07-54A2271E7C13</title>
    <desc>Created with sketchtool.</desc>
    <defs></defs>
    <g id="홈" stroke="none" stroke-width="1" fill="none" fill-rule="evenodd">
        <g id="home-INS" transform="translate(-16.000000, -465.000000)" fill="#000000">
            <g id="위치" transform="translate(16.000000, 462.000000)">
                <path d="M4,3 C1.78857143,3 0,4.78857143 0,7 C0,10 4,14.4285714 4,14.4285714 C4,14.4285714 8,10 8,7 C8,4.78857143 6.21142857,3 4,3 L4,3 Z M4,8.42857143 C3.21142857,8.42857143 2.57142857,7.78857143 2.57142857,7 C2.57142857,6.21142857 3.21142857,5.57142857 4,5.57142857 C4.78857143,5.57142857 5.42857143,6.21142857 5.42857143,7 C5.42857143,7.78857143 4.78857143,8.42857143 4,8.42857143 L4,8.42857143 Z" id="Shape"></path>
            </g>
        </g>
    </g>
</svg>